<svg width="0" height="0" class="hidden">
  <symbol version="1.1" id="new" xmlns="http://www.w3.org/2000/svg" xmlns:xlink="http://www.w3.org/1999/xlink" x="0px" y="0px" xml:space="preserve" viewBox="0 0 511.984 511.984">
    <polygon points="511.984,255.992 473.188,197.791 477.688,127.996 414.987,96.981 383.988,34.296 
	314.193,38.795 255.992,0 197.806,38.795 127.996,34.296 96.997,96.981 34.31,127.996 38.81,197.791 0,255.992 38.81,314.178 
	34.31,383.988 96.997,414.987 127.996,477.674 197.806,473.174 255.992,511.984 314.193,473.174 383.988,477.674 415.003,414.987 
	477.688,383.988 473.188,314.178 "></polygon>
    <g>
      <polygon points="160.292,283.663 122.324,221.852 101.715,221.852 101.715,314.115 121.293,314.115 
		121.293,252.18 159.526,314.115 179.744,314.115 179.744,221.852 160.292,221.852 	"></polygon>
      <polygon points="224.962,274.46 270.069,274.46 270.069,258.523 224.962,258.523 224.962,238.43 
		274.085,238.43 274.085,221.852 204.868,221.852 204.868,314.115 274.991,314.115 274.991,297.147 224.962,297.147 	"></polygon>
      <polygon points="390.331,221.852 375.035,285.35 359.083,221.852 340.036,221.852 323.833,284.569 
		309.068,221.852 288.71,221.852 313.209,314.115 333.817,314.115 349.364,251.133 365.177,314.115 385.394,314.115 
		410.284,221.852 	"></polygon>
    </g>
 
  </symbol>
  <symbol  version="1.1" id="shopping" xmlns="http://www.w3.org/2000/svg" xmlns:xlink="http://www.w3.org/1999/xlink" x="0px" y="0px" xml:space="preserve" viewBox="0 0 472.337 472.336">
    <g>
      <path  d="M406.113,126.627c0-5.554-4.499-10.05-10.053-10.05h-76.377V91.715C319.684,41.143,278.543,0,227.969,0
		c-50.573,0-91.713,41.143-91.713,91.715v24.862H70.45c-5.549,0-10.05,4.497-10.05,10.05L3.914,462.284
		c0,5.554,4.497,10.053,10.055,10.053h444.397c5.554,0,10.057-4.499,10.057-10.053L406.113,126.627z M156.352,91.715
		c0-39.49,32.13-71.614,71.612-71.614c39.49,0,71.618,32.13,71.618,71.614v24.862h-143.23V91.715z M80.498,136.678h55.753v44.258
		c-4.849,3.246-8.037,8.765-8.037,15.035c0,9.99,8.09,18.089,18.087,18.089c9.985,0,18.089-8.095,18.089-18.089
		c0-6.275-3.197-11.789-8.043-15.035v-44.258h143.239v44.258c-4.849,3.246-8.041,8.765-8.041,15.035
		c0,9.99,8.093,18.089,18.09,18.089c9.987,0,18.089-8.095,18.089-18.089c0-6.275-3.201-11.789-8.046-15.035v-44.258h66.329
		l30.345,153.657H52.995L80.498,136.678z M24.015,452.235l10.16-56.766h402.938l11.21,56.766H24.015z"></path>
    </g>
 
  </symbol>
  <symbol version="1.1" id="sale" xmlns="http://www.w3.org/2000/svg" xmlns:xlink="http://www.w3.org/1999/xlink" x="0px" y="0px" xml:space="preserve" viewBox="0 0 206 206">
    <g>
      <path d="M130.765,106.671c-4.179,0-7.655,1.416-10.049,4.097c-2.147,2.402-3.33,5.668-3.33,9.198
		c0,6.483,4.234,13.462,13.528,13.462c4.18,0,7.655-1.416,10.049-4.097c2.147-2.402,3.329-5.669,3.329-9.198
		C144.292,113.649,140.059,106.671,130.765,106.671z"></path>
      <path d="M181.333,0h-155C17.389,0,9.5,7.327,9.5,16v174c0,7.381,2.422,16,8.782,16c5.357,0,14-8.122,14.927-9.017l7.147-6.744
		c1.167-1.128,2.763-1.749,4.457-1.749c1.693,0,3.279,0.621,4.447,1.749l6.952,6.713C60.752,201.338,68.646,206,74.33,206
		c5.686,0,13.578-4.662,18.117-9.048l6.95-6.713c1.167-1.128,2.743-1.749,4.437-1.749c1.693,0,3.269,0.621,4.437,1.749l6.947,6.713
		c4.539,4.386,12.431,9.048,18.115,9.048c5.686,0,13.577-4.662,18.115-9.048l6.949-6.713c1.167-1.128,2.742-1.749,4.437-1.749
		c1.693,0,3.269,0.621,4.437,1.749l6.947,6.713c3.497,3.379,9.864,9.048,14.333,9.048c5.233,0,7.949-5.683,7.949-16V16
		C196.5,7.028,190.024,0,181.333,0z M57.974,43.706c4.719-5.143,11.395-7.861,19.307-7.861c17.004,0,25.902,12.608,25.902,25.062
		c0,6.54-2.313,12.65-6.514,17.206c-4.739,5.139-11.443,7.856-19.388,7.856c-16.929,0-25.787-12.608-25.787-25.062
		C51.494,54.37,53.795,48.261,57.974,43.706z M72.008,135H55.476l80.849-89.663l16.426-0.414L72.008,135z M149.784,137.002
		c-4.648,5.042-11.225,7.707-19.019,7.707c-16.608,0-25.296-12.368-25.296-24.585c0-6.413,2.258-12.405,6.357-16.873
		c4.629-5.045,11.178-7.711,18.939-7.711c16.681,0,25.408,12.368,25.408,24.585C156.173,126.539,153.904,132.533,149.784,137.002z"></path>
      <path d="M77.433,74.163c4.192,0,7.677-1.413,10.077-4.085c2.148-2.393,3.332-5.647,3.332-9.162c0-6.462-4.243-13.417-13.561-13.417
		c-9.5,0-13.753,6.654-13.753,13.249C63.528,67.209,67.88,74.163,77.433,74.163z"></path>
    </g>
    
  </symbol>
  <symbol version="1.1" id="like" xmlns="http://www.w3.org/2000/svg" xmlns:xlink="http://www.w3.org/1999/xlink" x="0px" y="0px" xml:space="preserve" viewBox="0 0 56 56">
    <rect x="1.5" y="20" width="14" height="36"></rect>
    <circle cx="8.5" cy="47" r="4"></circle>
    <path d="M53.5,26c0-2.209-1.791-4-4-4h-9h-3h-3.602l0.988-4.619c0.754-3.524,0.552-7.819,0.104-10.836
	C34.542,3.528,31.84,0,29.013,0h-0.239C26.364,0,25.5,2.659,25.5,6c0,16.25-8,16-8,16h-2v32h15h10h4c2.209,0,4-1.791,4-4
	c0-2.209-1.791-4-4-4h3c2.209,0,4-1.791,4-4c0-2.209-1.791-4-4-4h3c2.209,0,4-1.791,4-4c0-2.493-1.613-3.442-4-3.796
	C49.337,30.031,47.224,30,46.5,30h3C51.709,30,53.5,28.209,53.5,26z"></path>
    <path d="M52.12,29H39.5c-0.552,0-1,0.447-1,1s0.448,1,1,1h13.456c-0.657-0.403-1.488-0.653-2.456-0.796
	C49.337,30.031,47.224,30,46.5,30h3C50.508,30,51.417,29.615,52.12,29z"></path>
    <path d="M53.12,37H39.5c-0.552,0-1,0.447-1,1s0.448,1,1,1h10.621c-0.703-0.615-1.613-1-2.621-1h3
	C51.508,38,52.417,37.615,53.12,37z"></path>
    <path d="M50.12,45H37.5c-0.552,0-1,0.447-1,1s0.448,1,1,1h9.621c-0.703-0.615-1.613-1-2.621-1h3
	C48.508,46,49.417,45.615,50.12,45z"></path>
    
  </symbol>
  <symbol version="1.1" id="heart" xmlns="http://www.w3.org/2000/svg" xmlns:xlink="http://www.w3.org/1999/xlink" x="0px" y="0px" xml:space="preserve" viewBox="0 0 50 50">
    <path d="M24.85,10.126c2.018-4.783,6.628-8.125,11.99-8.125c7.223,0,12.425,6.179,13.079,13.543
	c0,0,0.353,1.828-0.424,5.119c-1.058,4.482-3.545,8.464-6.898,11.503L24.85,48L7.402,32.165c-3.353-3.038-5.84-7.021-6.898-11.503
	c-0.777-3.291-0.424-5.119-0.424-5.119C0.734,8.179,5.936,2,13.159,2C18.522,2,22.832,5.343,24.85,10.126z"></path>
    
  </symbol>
  <symbol version="1.1" id="call" xmlns="http://www.w3.org/2000/svg" xmlns:xlink="http://www.w3.org/1999/xlink" x="0px" y="0px" xml:space="preserve" viewBox="0 0 891.024 891.024">
    <g>
      <path d="M2.8,180.875c46.6,134,144.7,286.2,282.9,424.399c138.2,138.2,290.4,236.301,424.4,282.9c18.2,6.3,38.3,1.8,52-11.8
		l92.7-92.7l21.6-21.6c19.5-19.5,19.5-51.2,0-70.7l-143.5-143.4c-19.5-19.5-51.2-19.5-70.7,0l-38.899,38.9
		c-20.2,20.2-52.4,22.2-75,4.6c-44.7-34.8-89-73.899-131.9-116.8c-42.9-42.9-82-87.2-116.8-131.9c-17.601-22.6-15.601-54.7,4.6-75
		l38.9-38.9c19.5-19.5,19.5-51.2,0-70.7l-143.5-143.5c-19.5-19.5-51.2-19.5-70.7,0l-21.6,21.6l-92.7,92.7
		C1,142.575-3.5,162.675,2.8,180.875z"></path>
    </g>
    
  </symbol>
  <symbol version="1.1" id="currency" xmlns="http://www.w3.org/2000/svg" xmlns:xlink="http://www.w3.org/1999/xlink" x="0px" y="0px" xml:space="preserve" viewBox="0 0 512 512">
    <g>
      <g>
        <path d="M297.06,251.303c-7.104-4.74-15.765-7.887-25.853-9.42v-39.127c15.698,3.881,15.716,13.907,15.716,18.228h30.417
			c0-17.131-7.013-30.863-20.28-39.715c-7.104-4.74-15.765-7.887-25.853-9.42V156.3H240.79v15.549
			c-10.088,1.533-18.748,4.68-25.853,9.42c-13.268,8.85-20.28,22.584-20.28,39.715c0,17.131,7.013,30.863,20.28,39.715
			c7.104,4.74,15.765,7.887,25.853,9.42v39.127c-15.697-3.881-15.716-13.906-15.716-18.228h-30.417
			c0,17.131,7.013,30.863,20.28,39.715c7.104,4.74,15.765,7.887,25.853,9.42v15.549h30.417v-15.549
			c10.088-1.533,18.748-4.68,25.853-9.42c13.268-8.85,20.28-22.584,20.28-39.715C317.34,273.886,310.327,260.154,297.06,251.303z
			 M240.79,239.212c-15.697-3.881-15.716-13.906-15.716-18.228c0-4.321,0.018-14.347,15.716-18.228V239.212z M271.209,309.245
			v-36.456c15.697,3.882,15.716,13.907,15.716,18.228C286.924,295.339,286.906,305.364,271.209,309.245z"></path>
      </g>
    </g>
    <g>
      <g>
        <path d="M399.73,101.275H112.27H0v112.269v84.913v112.269h112.27H399.73H512V298.457v-84.913v-112.27H399.73z M30.417,131.692
			h49.684c-5.753,24.558-25.127,43.931-49.684,49.684V131.692z M30.417,380.309v-49.684c24.558,5.754,43.932,25.127,49.684,49.684
			H30.417z M111.075,380.311v-0.002c-6.538-41.363-39.294-74.121-80.658-80.657V212.35c41.364-6.538,74.121-39.294,80.658-80.657
			h52.904c-38.018,28.218-62.705,73.432-62.705,124.309s24.686,96.091,62.705,124.309H111.075z M255.999,380.31
			c-68.544,0-124.309-55.765-124.309-124.309s55.765-124.309,124.309-124.309s124.309,55.765,124.309,124.309
			S324.543,380.31,255.999,380.31z M481.583,380.309h-49.684c5.754-24.558,25.128-43.93,49.684-49.684V380.309z M481.583,299.65
			c-41.364,6.538-74.121,39.294-80.658,80.657h-52.901c38.017-28.218,62.702-73.431,62.702-124.307
			c0-50.877-24.686-96.091-62.705-124.309h52.904c6.538,41.363,39.294,74.121,80.658,80.657V299.65z M481.583,181.377
			c-24.558-5.754-43.932-25.127-49.684-49.684h49.684V181.377z"></path>
      </g>
    </g>
    <g>
      <g>
        <circle cx="65.846" cy="256.002" r="18.836"></circle>
      </g>
    </g>
    <g>
      <g>
        <circle cx="446.159" cy="256.002" r="18.836"></circle>
      </g>
    </g>
    
  </symbol>
  <symbol version="1.1" id="language" xmlns="http://www.w3.org/2000/svg" xmlns:xlink="http://www.w3.org/1999/xlink" x="0px" y="0px" enable-background="new 796 796 200 200" xml:space="preserve" viewBox="796 796 200 200">
    <g>
      <path d="M973.166,818.5H818.833c-12.591,0-22.833,10.243-22.833,22.833v109.333c0,12.59,10.243,22.833,22.833,22.833h154.333
		c12.59,0,22.834-10.243,22.834-22.833V841.333C996,828.743,985.756,818.5,973.166,818.5z M896,961.5h-77.167
		c-5.973,0-10.833-4.859-10.833-10.833V841.333c0-5.974,4.86-10.833,10.833-10.833H896V961.5z M978.58,872.129
		c-0.547,9.145-5.668,27.261-20.869,39.845c4.615,1.022,9.629,1.573,14.92,1.573v12c-10.551,0-20.238-1.919-28.469-5.325
		c-7.689,3.301-16.969,5.325-28.125,5.325v-12c5.132,0,9.924-0.501,14.366-1.498c-8.412-7.016-13.382-16.311-13.382-26.78h11.999
		c0,8.857,5.66,16.517,14.884,21.623c4.641-2.66,8.702-6.112,12.164-10.351c5.628-6.886,8.502-14.521,9.754-20.042h-49.785v-12
		h22.297v-11.986h12V864.5h21.055c1.986,0,3.902,0.831,5.258,2.28C977.986,868.199,978.697,870.155,978.58,872.129z"></path>
      <g>
        <g>
          <path d="M839.035,914.262l-4.45,11.258h-15.971l26.355-61.09h15.971l25.746,61.09h-16.583l-4.363-11.258H839.035z
				 M852.475,879.876l-8.902,22.604h17.629L852.475,879.876z"></path>
        </g>
      </g>
    </g>
  </symbol>
  <symbol version="1.1" id="gift" xmlns="http://www.w3.org/2000/svg" xmlns:xlink="http://www.w3.org/1999/xlink" x="0px" y="0px" xml:space="preserve" viewBox="0 0 199.516 199.516">
    <path d="M180.916,41.456h-15.858c3.637-2.664,6.443-6.369,8.01-10.704c2.289-6.329,1.69-13.313-1.641-19.161
	C167.354,4.441,159.706,0,151.466,0c-6.507,0-12.514,2.651-16.915,7.464l-19.558,21.391c-2.972-3.4-7.328-5.561-12.188-5.561H96.71
	c-4.86,0-9.216,2.161-12.188,5.562L64.964,7.465C60.563,2.651,54.557,0,48.05,0c-8.24,0-15.889,4.441-19.961,11.591
	c-3.332,5.849-3.93,12.833-1.641,19.162c1.567,4.335,4.373,8.039,8.009,10.703H18.6c-4.143,0-7.5,3.358-7.5,7.5v40.701
	c0,3.973,3.092,7.216,7,7.475v94.884c0,4.142,3.357,7.5,7.5,7.5h50.5h47.316h50.5c4.143,0,7.5-3.358,7.5-7.5V97.132
	c3.908-0.258,7-3.501,7-7.475V48.956C188.416,44.814,185.059,41.456,180.916,41.456z M115.916,56.529v127.987H83.6V56.529h4.408
	h23.5H115.916z M40.554,25.652c-0.804-2.225-0.603-4.582,0.568-6.637C42.555,16.501,45.145,15,48.05,15
	c2.244,0,4.319,0.918,5.844,2.586l21.825,23.87h-0.999L45.235,30.391C43.021,29.559,41.358,27.876,40.554,25.652z M158.962,25.651
	c-0.805,2.225-2.468,3.908-4.683,4.739l-29.483,11.066h-0.999l21.824-23.87c1.524-1.668,3.601-2.586,5.845-2.586
	c2.905,0,5.495,1.501,6.928,4.016C159.563,21.07,159.766,23.427,158.962,25.651z"></path>
    
  </symbol>
  
  <symbol version="1.1" id="calendar" xmlns="http://www.w3.org/2000/svg" xmlns:xlink="http://www.w3.org/1999/xlink" x="0px" y="0px" xml:space="preserve" viewBox="0 0 38.5 38.5">
    <g>
      <path d="M36.5,5.625h-7.252v-1.25c0-1.104-0.895-2-2-2c-1.104,0-2,0.896-2,2v1.25H13.25v-1.25c0-1.104-0.896-2-2-2s-2,0.896-2,2
		v1.25H2c-1.104,0-2,0.896-2,2v26.5c0,1.104,0.896,2,2,2h34.5c1.104,0,2-0.896,2-2v-26.5C38.5,6.521,37.604,5.625,36.5,5.625z
		 M34.5,32.125H4v-22.5h5.25v0.25c0,1.104,0.896,2,2,2s2-0.896,2-2v-0.25h11.998v0.25c0,1.104,0.896,2,2,2c1.105,0,2-0.896,2-2
		v-0.25H34.5V32.125L34.5,32.125z M10.559,15.042c0,0.892-0.723,1.615-1.614,1.615c-0.891,0-1.614-0.723-1.614-1.615
		s0.723-1.615,1.614-1.615C9.836,13.427,10.559,14.15,10.559,15.042z M15.711,15.042c0,0.892-0.723,1.615-1.613,1.615
		c-0.89,0-1.614-0.723-1.614-1.615s0.724-1.615,1.614-1.615C14.988,13.427,15.711,14.15,15.711,15.042z M20.863,15.042
		c0,0.892-0.723,1.615-1.613,1.615c-0.892,0-1.615-0.723-1.615-1.615s0.724-1.615,1.615-1.615
		C20.141,13.427,20.863,14.15,20.863,15.042z M26.016,15.042c0,0.892-0.723,1.615-1.613,1.615s-1.614-0.723-1.614-1.615
		s0.724-1.615,1.614-1.615S26.016,14.15,26.016,15.042z M29.553,13.427c0.893,0,1.615,0.723,1.615,1.615s-0.725,1.615-1.615,1.615
		s-1.613-0.723-1.613-1.615S28.662,13.427,29.553,13.427z M10.559,19.792c0,0.892-0.723,1.614-1.614,1.614
		c-0.891,0-1.614-0.723-1.614-1.614s0.723-1.615,1.614-1.615C9.836,18.177,10.559,18.9,10.559,19.792z M15.711,19.792
		c0,0.892-0.723,1.614-1.613,1.614c-0.89,0-1.614-0.723-1.614-1.614s0.724-1.615,1.614-1.615
		C14.988,18.177,15.711,18.9,15.711,19.792z M20.863,19.792c0,0.892-0.723,1.614-1.613,1.614c-0.892,0-1.615-0.723-1.615-1.614
		s0.724-1.615,1.615-1.615C20.141,18.177,20.863,18.9,20.863,19.792z M26.016,19.792c0,0.892-0.723,1.614-1.613,1.614
		s-1.614-0.723-1.614-1.614s0.724-1.615,1.614-1.615S26.016,18.9,26.016,19.792z M31.168,19.792c0,0.892-0.723,1.614-1.613,1.614
		c-0.89,0-1.613-0.723-1.613-1.614s0.724-1.615,1.613-1.615C30.445,18.177,31.168,18.9,31.168,19.792z M10.559,24.542
		c0,0.892-0.723,1.614-1.614,1.614c-0.891,0-1.614-0.723-1.614-1.614s0.723-1.614,1.614-1.614
		C9.836,22.928,10.559,23.65,10.559,24.542z M15.711,24.542c0,0.892-0.723,1.614-1.613,1.614c-0.89,0-1.614-0.723-1.614-1.614
		s0.724-1.614,1.614-1.614C14.988,22.928,15.711,23.65,15.711,24.542z M20.863,24.542c0,0.892-0.723,1.614-1.613,1.614
		c-0.892,0-1.615-0.723-1.615-1.614s0.724-1.614,1.615-1.614C20.141,22.928,20.863,23.65,20.863,24.542z M26.016,24.542
		c0,0.892-0.723,1.614-1.613,1.614s-1.614-0.723-1.614-1.614s0.724-1.614,1.614-1.614S26.016,23.65,26.016,24.542z M31.168,24.542
		c0,0.892-0.723,1.614-1.613,1.614c-0.89,0-1.613-0.723-1.613-1.614s0.724-1.614,1.613-1.614
		C30.445,22.928,31.168,23.65,31.168,24.542z M10.559,29.292c0,0.892-0.723,1.614-1.614,1.614c-0.891,0-1.614-0.723-1.614-1.614
		s0.723-1.614,1.614-1.614C9.836,27.678,10.559,28.4,10.559,29.292z M15.711,29.292c0,0.892-0.723,1.614-1.613,1.614
		c-0.89,0-1.614-0.723-1.614-1.614s0.724-1.614,1.614-1.614C14.988,27.678,15.711,28.4,15.711,29.292z M20.863,29.292
		c0,0.892-0.723,1.614-1.613,1.614c-0.892,0-1.615-0.723-1.615-1.614s0.724-1.614,1.615-1.614
		C20.141,27.678,20.863,28.4,20.863,29.292z M26.016,29.292c0,0.892-0.723,1.614-1.613,1.614s-1.614-0.723-1.614-1.614
		s0.724-1.614,1.614-1.614S26.016,28.4,26.016,29.292z M31.168,29.292c0,0.892-0.723,1.614-1.613,1.614
		c-0.89,0-1.613-0.723-1.613-1.614s0.724-1.614,1.613-1.614C30.445,27.678,31.168,28.4,31.168,29.292z"></path>
    </g>
    <g></g>
    <g></g>
    <g></g>
    <g></g>
    <g></g>
    <g></g>
    <g></g>
    <g></g>
    <g></g>
    <g></g>
    <g></g>
    <g></g>
    <g></g>
    <g></g>
    <g></g>
  </symbol>
  <symbol  xmlns="http://www.w3.org/2000/svg" viewBox="0 0 28 28" id="instagram">
    <circle cx="14" cy="14" r="14" fill="#C4C4C4"></circle>
    <path d="M17.0648 5.4668H10.7386C7.82751 5.4668 5.4668 7.82751 5.4668 10.7386V17.0648C5.4668 19.9758 7.82751 22.3365 10.7386 22.3365H17.0648C19.9758 22.3365 22.3365 19.9758 22.3365 17.0648V10.7386C22.3365 7.82751 19.9758 5.4668 17.0648 5.4668ZM20.755 17.0648C20.755 19.0997 19.0997 20.755 17.0648 20.755H10.7386C8.70368 20.755 7.04834 19.0997 7.04834 17.0648V10.7386C7.04834 8.70368 8.70368 7.04834 10.7386 7.04834H17.0648C19.0997 7.04834 20.755 8.70368 20.755 10.7386V17.0648Z" ></path>
    <path d="M13.9015 9.68408C11.5724 9.68408 9.68408 11.5724 9.68408 13.9015C9.68408 16.2306 11.5724 18.119 13.9015 18.119C16.2306 18.119 18.119 16.2306 18.119 13.9015C18.119 11.5724 16.2306 9.68408 13.9015 9.68408ZM13.9015 16.5374C12.4486 16.5374 11.2656 15.3544 11.2656 13.9015C11.2656 12.4476 12.4486 11.2656 13.9015 11.2656C15.3544 11.2656 16.5374 12.4476 16.5374 13.9015C16.5374 15.3544 15.3544 16.5374 13.9015 16.5374Z" ></path>
    <path d="M18.4355 9.9301C18.7459 9.9301 18.9975 9.6785 18.9975 9.36813C18.9975 9.05776 18.7459 8.80615 18.4355 8.80615C18.1251 8.80615 17.8735 9.05776 17.8735 9.36813C17.8735 9.6785 18.1251 9.9301 18.4355 9.9301Z" ></path>
  </symbol>
  <symbol  xmlns="http://www.w3.org/2000/svg" viewBox="0 0 28 28" id="vk">
    <circle cx="14" cy="14" r="14" fill="#C4C4C4"></circle>
    <g clip-path="url(#clip0_25_278)">
      <path d="M19.2771 15.1609C19.0185 14.8459 19.0925 14.7057 19.2771 14.4241C19.2805 14.4209 21.4159 11.5756 21.6359 10.6107L21.6372 10.6101C21.7465 10.2584 21.6372 10 21.1085 10H19.3591C18.9138 10 18.7084 10.2218 18.5984 10.4699C18.5984 10.4699 17.7077 12.5258 16.4477 13.8584C16.041 14.2435 15.853 14.3669 15.631 14.3669C15.5217 14.3669 15.3517 14.2435 15.3517 13.8919V10.6101C15.3517 10.1884 15.227 10 14.8583 10H12.1075C11.8282 10 11.6622 10.1967 11.6622 10.3799C11.6622 10.7798 12.2922 10.8717 12.3576 11.9967V14.4376C12.3576 14.9725 12.2569 15.0709 12.0335 15.0709C11.4389 15.0709 9.99547 13.0066 9.14011 10.6441C8.96744 10.1858 8.79876 10.0006 8.35008 10.0006H6.60002C6.10067 10.0006 6 10.2224 6 10.4706C6 10.909 6.59469 13.0889 8.76543 15.9689C10.2122 17.9348 12.2495 19 14.103 19C15.217 19 15.353 18.7634 15.353 18.3565C15.353 16.4781 15.2523 16.3006 15.8103 16.3006C16.069 16.3006 16.5144 16.4241 17.5544 17.3723C18.7431 18.4966 18.9384 19 19.6038 19H21.3532C21.8519 19 22.1046 18.7634 21.9592 18.2967C21.6265 17.3151 19.3785 15.2959 19.2771 15.1609Z" ></path>
    </g>
    <defs>
      <clipPath id="clip0_25_278">
        <rect width="16" height="9" fill="white" transform="translate(6 10)"></rect>
      </clipPath>
    </defs>
  </symbol>
  <symbol  xmlns="http://www.w3.org/2000/svg" viewBox="0 0 28 28" id="telegram">
    <circle cx="14" cy="14" r="14" fill="#C4C4C4"></circle>
    <path d="M12.1102 15.9675L11.8486 19.7514C12.2228 19.7514 12.3849 19.5861 12.5793 19.3875L14.3337 17.6629L17.9692 20.4013C18.636 20.7835 19.1057 20.5822 19.2856 19.7704L21.6719 8.26942L21.6726 8.26874C21.884 7.25499 21.3161 6.85857 20.6665 7.10726L6.63983 12.6307C5.68253 13.0129 5.69703 13.5618 6.47709 13.8105L10.0631 14.9578L18.3929 9.59692C18.7849 9.32993 19.1413 9.47766 18.8481 9.74465L12.1102 15.9675Z" fill="black"></path>
  </symbol>
  <symbol  version="1.1" id="megaphone" xmlns="http://www.w3.org/2000/svg" xmlns:xlink="http://www.w3.org/1999/xlink" x="0px" y="0px" xml:space="preserve" viewBox="0 0 502 502">
    <g>
      <g>
        <g>
          <path d="M253.094,163.827c0.694,5.004,4.979,8.627,9.893,8.627c0.457,0,0.921-0.032,1.387-0.096
				c29.835-4.138,59.079-11.176,86.92-20.92c5.213-1.824,7.96-7.529,6.136-12.742c-1.824-5.212-7.527-7.959-12.742-6.134
				c-26.593,9.306-54.538,16.03-83.063,19.986C256.154,153.307,252.335,158.357,253.094,163.827z"></path>
          <path d="M382.005,138.377c1.383,0,2.789-0.289,4.13-0.898c7.654-3.477,15.245-7.215,22.563-11.112
				c4.875-2.596,6.723-8.652,4.127-13.527c-2.596-4.875-8.65-6.721-13.526-4.126c-6.949,3.7-14.161,7.252-21.435,10.556
				c-5.028,2.284-7.253,8.212-4.969,13.24C374.57,136.197,378.204,138.377,382.005,138.377z"></path>
          <path d="M467.252,4c-18.769,0-34.1,14.96-34.719,33.581c-50.031,42.993-104.507,61.926-141.758,70.234
				c-41.516,9.258-71.326,7.744-71.61,7.729c-0.098-0.006-0.195,0-0.293-0.002c-0.094-0.003-0.186-0.014-0.28-0.014H75.995
				c-5.522,0-10,4.477-10,10v28.73h-0.018C29.598,154.257,0,183.854,0,220.235s29.598,65.978,65.978,65.978h0.018v28.73
				c0,5.523,4.478,10,10,10h17.291l22.907,122.303c5.507,29.409,31.22,50.754,61.141,50.754h48.078c2.975,0,5.795-1.324,7.694-3.613
				c1.9-2.289,2.683-5.305,2.135-8.228l-30.195-161.216h13.545c0.1,0,0.196-0.012,0.295-0.015c0.089-0.002,0.178,0.004,0.267-0.001
				c0.298-0.016,30.104-1.531,71.621,7.728c37.251,8.308,91.727,27.241,141.758,70.233c0.619,18.621,15.95,33.581,34.719,33.581
				c19.16,0,34.748-15.588,34.748-34.748V38.748C502,19.588,486.412,4,467.252,4z M65.996,266.213h-0.018
				C40.625,266.213,20,245.587,20,220.235s20.625-45.978,45.978-45.978h0.018V266.213z M205.125,434H180c-5.522,0-10,4.477-10,10
				s4.478,10,10,10h28.871l4.495,24h-36.031c-20.301,0-37.747-14.482-41.483-34.436l-22.218-118.621h71.065L189.018,348H163
				c-5.522,0-10,4.477-10,10s4.478,10,10,10h29.764l4.308,23H171c-5.522,0-10,4.477-10,10s4.478,10,10,10h29.817L205.125,434z
				 M208.592,304.943H85.995V135.526h122.597V304.943z M432.505,377.046c-49.627-38.409-101.622-56.014-138.101-64.071
				c-29.384-6.492-52.973-7.922-65.812-8.133V135.628c12.839-0.211,36.428-1.642,65.812-8.132
				c36.479-8.057,88.474-25.662,138.101-64.071V377.046z M482,401.721c0,8.132-6.616,14.748-14.748,14.748
				c-8.132,0-14.748-6.616-14.748-14.748V38.748c0-8.132,6.616-14.748,14.748-14.748C475.384,24,482,30.616,482,38.748V401.721z"></path>
        </g>
      </g>
    </g>
   
  </symbol>
  <symbol  xmlns="http://www.w3.org/2000/svg" viewBox="0 0 14 8" id="show">
    <path  d="M6.66931 5.25531L11.6193 0.305313C11.8704 0.0453564 12.2422 -0.0588996 12.5918 0.0326158C12.9415 0.124131 13.2145 0.397176 13.306 0.746806C13.3975 1.09644 13.2933 1.46824 13.0333 1.71931L7.37631 7.37631C6.98581 7.7667 6.35281 7.7667 5.96231 7.37631L0.305313 1.71931C0.0453564 1.46824 -0.0588996 1.09644 0.0326158 0.746806C0.124131 0.397176 0.397176 0.124131 0.746806 0.0326158C1.09644 -0.0588996 1.46824 0.0453564 1.71931 0.305313L6.66931 5.25531Z"></path>
  </symbol>
  <symbol  xmlns="http://www.w3.org/2000/svg" viewBox="0 0 19 19" id="search">
    <path fill-rule="evenodd" clip-rule="evenodd" d="M17.9005 16.4865L14.3205 12.9065L14.3195 12.9055C16.9095 9.569 16.4594 4.79387 13.2916 2.00007C10.1238 -0.793727 5.32983 -0.643497 2.34317 2.34317C-0.643497 5.32983 -0.793727 10.1238 2.00007 13.2916C4.79387 16.4594 9.569 16.9095 12.9055 14.3195L16.4855 17.8995C16.7364 18.1596 17.1081 18.2642 17.4578 18.1729C17.8075 18.0816 18.0808 17.8088 18.1725 17.4592C18.2643 17.1097 18.1603 16.7378 17.9005 16.4865ZM13.1967 11.0005C12.1249 12.8569 10.1441 14.0005 8.00052 14.0005C4.68681 14.0005 2.00052 11.3142 2.00052 8.00052C2.00052 4.68681 4.68681 2.00052 8.00052 2.00052C10.1441 2.00052 12.1249 3.14411 13.1967 5.00052C14.2685 6.85693 14.2685 9.14411 13.1967 11.0005Z" ></path>
  </symbol>
  <symbol  xmlns="http://www.w3.org/2000/svg" viewBox="0 0 28 28" id="left">
    <path d="M14 28C21.732 28 28 21.732 28 14C28 6.26801 21.732 0 14 0C6.26801 0 0 6.26801 0 14C0 21.732 6.26801 28 14 28Z" fill="#EEEEEE"></path>
    <g filter="url(#filter0_d_0_121)">
      <path fill-rule="evenodd" clip-rule="evenodd" d="M16.0017 8.66611L16.5363 9.20513C16.7121 9.39201 16.8 9.61012 16.8 9.8592C16.8 10.1133 16.7121 10.329 16.5363 10.5063L13.0719 14L16.5363 17.4937C16.712 17.671 16.8 17.8867 16.8 18.1407C16.8 18.3899 16.712 18.608 16.5363 18.7949L16.0016 19.3268C15.8211 19.5089 15.6048 19.6 15.3529 19.6C15.0963 19.6 14.8825 19.5089 14.7114 19.3268L10.0709 14.647C9.89034 14.4744 9.80005 14.2589 9.80005 14C9.80005 13.746 9.89034 13.5279 10.0709 13.3459L14.7114 8.66611C14.8873 8.48876 15.1011 8.4 15.3529 8.4C15.6001 8.4 15.8163 8.48876 16.0017 8.66611V8.66611Z" fill="#4330B1"></path>
    </g>
    <defs>
      <filter id="filter0_d_0_121" x="5.80005" y="8.4" width="15" height="19.2" filterUnits="userSpaceOnUse" color-interpolation-filters="sRGB">
        <feFlood flood-opacity="0" result="BackgroundImageFix"></feFlood>
        <feColorMatrix in="SourceAlpha" type="matrix" values="0 0 0 0 0 0 0 0 0 0 0 0 0 0 0 0 0 0 127 0" result="hardAlpha"></feColorMatrix>
        <feOffset dy="4"></feOffset>
        <feGaussianBlur stdDeviation="2"></feGaussianBlur>
        <feComposite in2="hardAlpha" operator="out"></feComposite>
        <feColorMatrix type="matrix" values="0 0 0 0 0 0 0 0 0 0 0 0 0 0 0 0 0 0 0.25 0"></feColorMatrix>
        <feBlend mode="normal" in2="BackgroundImageFix" result="effect1_dropShadow_0_121"></feBlend>
        <feBlend mode="normal" in="SourceGraphic" in2="effect1_dropShadow_0_121" result="shape"></feBlend>
      </filter>
    </defs>
  </symbol>
  <symbol  xmlns="http://www.w3.org/2000/svg" viewBox="0 0 28 28" id="right">
    <path d="M14 28C21.732 28 28 21.732 28 14C28 6.26801 21.732 0 14 0C6.26801 0 0 6.26801 0 14C0 21.732 6.26801 28 14 28Z" fill="#EEEEEE"></path>
    <path fill-rule="evenodd" clip-rule="evenodd" d="M11.9983 8.66611L11.4637 9.20513C11.2879 9.39201 11.2 9.61012 11.2 9.8592C11.2 10.1133 11.2879 10.329 11.4637 10.5063L14.9281 14L11.4637 17.4937C11.288 17.671 11.2 17.8867 11.2 18.1407C11.2 18.3899 11.288 18.608 11.4637 18.7949L11.9984 19.3268C12.1789 19.5089 12.3952 19.6 12.6471 19.6C12.9037 19.6 13.1175 19.5089 13.2886 19.3268L17.9291 14.647C18.1097 14.4744 18.2 14.2589 18.2 14C18.2 13.746 18.1097 13.5279 17.9291 13.3459L13.2886 8.66611C13.1127 8.48876 12.8989 8.4 12.6471 8.4C12.3999 8.4 12.1837 8.48876 11.9983 8.66611Z" fill="#4330B1"></path>
  </symbol>
  <symbol version="1.1" id="star" xmlns="http://www.w3.org/2000/svg" xmlns:xlink="http://www.w3.org/1999/xlink" x="0px" y="0px" xml:space="preserve" viewBox="0 0 36.09 36.09">
    <g>
      <path d="M36.042,13.909c-0.123-0.377-0.456-0.646-0.85-0.688l-11.549-1.172L18.96,1.43c-0.16-0.36-0.519-0.596-0.915-0.596
		s-0.755,0.234-0.915,0.598L12.446,12.05L0.899,13.221c-0.394,0.04-0.728,0.312-0.85,0.688c-0.123,0.377-0.011,0.791,0.285,1.055
		l8.652,7.738L6.533,34.045c-0.083,0.387,0.069,0.787,0.39,1.02c0.175,0.127,0.381,0.191,0.588,0.191
		c0.173,0,0.347-0.045,0.503-0.137l10.032-5.84l10.03,5.84c0.342,0.197,0.77,0.178,1.091-0.059c0.32-0.229,0.474-0.633,0.391-1.02
		l-2.453-11.344l8.653-7.737C36.052,14.699,36.165,14.285,36.042,13.909z M25.336,21.598c-0.268,0.24-0.387,0.605-0.311,0.957
		l2.097,9.695l-8.574-4.99c-0.311-0.182-0.695-0.182-1.006,0l-8.576,4.99l2.097-9.695c0.076-0.352-0.043-0.717-0.311-0.957
		l-7.396-6.613l9.87-1.002c0.358-0.035,0.668-0.264,0.814-0.592l4.004-9.077l4.003,9.077c0.146,0.328,0.456,0.557,0.814,0.592
		l9.87,1.002L25.336,21.598z"></path>
    </g>
  </symbol>
  <symbol xmlns="http://www.w3.org/2000/svg" viewBox="0 0 48 48" id="delete">
    <linearGradient id="nyvBozV7VK1PdF3LtMmOna" x1="18.405" x2="33.814" y1="10.91" y2="43.484" gradientUnits="userSpaceOnUse">
      <stop offset="0" stop-color="#32bdef"></stop>
      <stop offset="1" stop-color="#1ea2e4"></stop>
    </linearGradient>
    <path fill="url(#nyvBozV7VK1PdF3LtMmOna)" d="M39,10l-2.835,31.181C36.072,42.211,35.208,43,34.174,43H13.826	c-1.034,0-1.898-0.789-1.992-1.819L9,10H39z"></path>
    <path fill="#0176d0" d="M32,7c0-1.105-0.895-2-2-2H18c-1.105,0-2,0.895-2,2c0,0,0,0.634,0,1h16C32,7.634,32,7,32,7z"></path>
    <path fill="#007ad9" d="M7,9.886L7,9.886C7,9.363,7.358,8.912,7.868,8.8C10.173,8.293,16.763,7,24,7s13.827,1.293,16.132,1.8	C40.642,8.912,41,9.363,41,9.886v0C41,10.501,40.501,11,39.886,11H8.114C7.499,11,7,10.501,7,9.886z"></path>
  </symbol>
</svg>